PathFileType	4	(X/Y/Z)	jw_ngait_og1_rotated.trc
DataRate	CameraRate	NumFrames	NumMarkers	Units	OrigDataRate	OrigDataStartFrame	OrigNumFrames
120.000000	120.000000	5	56	mm	120.000000	41	327
Frame#	Time	Sternum			Neck			RShoulder			LShoulder			Xiphoid			Thoracic			RAsis			LAsis			RPsis			LPsis			Lumbar			RElbow			RWrist			RRadius			RUlna			LElbow			LWrist			LUlna			LRadius			LThighSuperior			LThighInferior			LThighLateral			LPatella			LShankSuperior			LShankInferior			LShankLateral			RThighSuperior			RThighInferior			RThighLateral			RPatella			RShankSuperior			RShankInferior			RShankLateral			RHeel			RToe			RMidfootMedial			RMidfootLateral			RHindfoot			RMidfootSuperior			RToeMedial			RToeLateral			LHeel			LToe			LMidfootMedial			LMidfootLateral			LHindfoot			LMidfootSuperior			LToeMedial			LToeLateral			LShoulderCenter			Oglobal			RShoulderCenter			Sacral			Xglobal			Yglobal			Zglobal			
		X1	Y1	Z1	X2	Y2	Z2	X3	Y3	Z3	X4	Y4	Z4	X5	Y5	Z5	X6	Y6	Z6	X7	Y7	Z7	X8	Y8	Z8	X9	Y9	Z9	X10	Y10	Z10	X11	Y11	Z11	X12	Y12	Z12	X13	Y13	Z13	X14	Y14	Z14	X15	Y15	Z15	X16	Y16	Z16	X17	Y17	Z17	X18	Y18	Z18	X19	Y19	Z19	X20	Y20	Z20	X21	Y21	Z21	X22	Y22	Z22	X23	Y23	Z23	X24	Y24	Z24	X25	Y25	Z25	X26	Y26	Z26	X27	Y27	Z27	X28	Y28	Z28	X29	Y29	Z29	X30	Y30	Z30	X31	Y31	Z31	X32	Y32	Z32	X33	Y33	Z33	X34	Y34	Z34	X35	Y35	Z35	X36	Y36	Z36	X37	Y37	Z37	X38	Y38	Z38	X39	Y39	Z39	X40	Y40	Z40	X41	Y41	Z41	X42	Y42	Z42	X43	Y43	Z43	X44	Y44	Z44	X45	Y45	Z45	X46	Y46	Z46	X47	Y47	Z47	X48	Y48	Z48	X49	Y49	Z49	X50	Y50	Z50	X51	Y51	Z51	X52	Y52	Z52	X53	Y53	Z53	X54	Y54	Z54	X55	Y55	Z55	X56	Y56	Z56	

41.00000	1.29167	1234.34351	1327.73999	-121.23936	1367.02405	1444.87891	-127.90386	1294.83032	1395.47070	-302.45737	1329.36389	1380.15930	59.13984	1239.99170	1211.92957	-119.61131	1461.38171	1255.67139	-139.61121	1246.08447	990.78973	-268.73788	1283.72546	971.09033	-2.23052	1473.31104	965.32245	-175.72295	1478.45471	965.09515	-115.49614	1472.06299	1035.28601	-154.04543	1368.89441	1075.19873	-408.20892	1282.07434	821.40460	-413.98627	1263.78479	827.14819	-378.55515	1330.40088	819.80640	-409.74573	1391.70447	1051.53979	113.21480	1338.55896	784.37738	116.84362	1389.87708	786.14801	112.70329	1322.27771	807.17181	81.07471	1293.71497	805.98035	38.65400	1195.91589	577.85815	-0.48270	1179.94556	702.89380	-5.07144	1128.38562	518.45264	-52.06972	1183.11560	427.34726	-12.14568	1172.96680	171.62233	-51.41094	1139.66150	303.62906	-85.50128	1300.45959	783.86096	-311.77158	1270.18726	540.22321	-289.47000	1225.81921	637.37616	-261.30130	1265.64795	440.40079	-245.07129	1434.58655	437.01132	-307.57437	1609.94836	286.39706	-256.28976	1493.59070	316.74698	-223.44083	1739.11340	303.93414	-197.81888	1626.36743	35.99694	-264.12402	1653.75159	99.15820	-193.57771	1679.08044	128.89615	-301.63135	1728.64307	192.66348	-282.64664	1618.67188	175.26965	-241.98376	1658.34570	56.47207	-207.45569	1654.48889	76.25439	-298.23077	1253.31567	44.70715	-94.35269	957.93787	71.42575	-66.42887	1040.67957	45.97672	-133.65343	1058.23987	40.09776	-10.39610	1155.39380	19.86936	-28.87463	1089.36682	116.85466	-74.30830	995.56958	60.58639	-108.36979	1008.33807	51.63536	-22.10520	1353.25806	1338.12488	44.44759	0.00000	0.00000	0.00000	1318.02368	1353.67493	-305.45163	1475.88281	965.20880	-145.60954	200.00000	0.00000	0.00000	0.00000	0.00000	-200.00000	0.00000	200.00000	0.00000
42.00000	1.30000	1224.82275	1329.97595	-120.59299	1357.27405	1447.19897	-126.81138	1286.03455	1397.86255	-301.68976	1319.25305	1382.17712	60.15454	1230.28735	1214.02991	-119.29817	1451.92444	1258.19226	-138.37578	1237.25305	992.88696	-268.45758	1273.67334	973.32489	-1.33435	1464.36633	967.87103	-174.62459	1469.45764	967.70081	-114.37735	1462.60413	1037.84888	-152.45363	1359.60632	1077.16052	-406.99841	1271.68713	823.63165	-412.30692	1253.52588	829.51056	-376.63962	1320.25208	822.05402	-408.64044	1379.65247	1053.20435	115.04911	1321.91968	787.17719	118.92595	1372.85828	787.47803	114.27561	1312.32349	806.91266	86.19481	1287.48438	808.22113	38.88867	1192.64246	578.64673	0.98146	1173.40173	704.67108	-6.73511	1125.16199	518.06842	-50.37665	1180.06458	427.94910	-11.18886	1172.06067	171.77080	-50.70246	1137.46423	303.64090	-84.26736	1286.93677	785.56879	-309.65329	1249.56995	543.46155	-288.20694	1207.82935	641.65320	-260.00266	1243.59644	443.87921	-241.82057	1412.05200	439.77835	-306.70999	1588.94788	290.93799	-255.54361	1473.13672	321.41119	-221.70070	1720.38354	308.72873	-200.47137	1601.39832	41.48023	-259.63348	1632.12695	105.35387	-191.12920	1654.18115	133.59599	-300.29645	1705.25134	196.74191	-283.68781	1596.54895	181.48889	-239.12436	1634.05310	63.24193	-204.61629	1628.90747	81.16942	-295.17001	1253.29150	44.80176	-94.18710	957.81915	71.15218	-66.18315	1040.66455	45.46289	-133.55237	1058.20398	39.67350	-10.28782	1155.46570	20.06042	-29.02747	1089.14417	116.49242	-74.21693	995.45319	60.53871	-108.16557	1008.23132	51.24194	-21.92337	1343.10767	1340.31311	45.54704	0.00000	0.00000	0.00000	1309.15735	1356.21716	-304.46320	1466.91199	967.78589	-144.50098	200.00000	0.00000	0.00000	0.00000	0.00000	-200.00000	0.00000	200.00000	0.00000
43.00000	1.30833	1215.48035	1331.94910	-119.87239	1347.56787	1449.52869	-125.75919	1277.26221	1400.18250	-301.08832	1309.17102	1384.30884	61.04469	1221.34485	1215.83923	-118.51020	1442.60205	1260.68555	-137.20416	1228.49951	994.85828	-267.90048	1265.40198	975.33765	-1.24717	1455.46936	970.35474	-173.48595	1460.53687	970.23621	-113.37466	1453.91479	1040.39075	-152.49071	1350.60840	1079.13940	-405.85681	1261.43933	825.92981	-410.56607	1243.69629	832.09760	-375.16373	1310.09619	824.23358	-407.34998	1367.50720	1054.91089	116.76239	1305.22107	790.03589	120.68774	1356.17590	789.29761	116.13202	1290.27869	813.42474	86.22198	1282.45752	809.95435	40.17780	1188.55981	579.37177	1.94234	1167.13538	706.17773	-7.99358	1122.13635	517.66101	-48.82515	1177.35864	428.46832	-10.31489	1171.76294	172.33400	-50.01936	1135.94702	303.68240	-83.54211	1274.11194	787.88892	-307.73926	1229.33862	547.20197	-286.74353	1190.44922	646.06055	-258.39365	1221.95557	448.03445	-238.66019	1389.60876	442.59668	-305.72137	1567.70081	294.93304	-254.72696	1452.40149	325.63458	-219.95551	1701.30591	312.29733	-203.59102	1574.74670	46.39477	-254.57997	1609.60754	110.77709	-188.79799	1627.74109	137.65576	-299.02597	1680.66394	199.91216	-285.10599	1573.48315	187.09311	-236.03931	1601.98999	73.71522	-204.38646	1601.65894	85.41154	-292.20914	1253.19214	44.99290	-94.12994	957.70764	70.83916	-65.75763	1040.54700	45.62872	-133.39754	1058.14661	39.37716	-10.16414	1155.28320	19.68187	-28.77602	1088.82043	116.54423	-73.78786	995.41895	60.42713	-107.88264	1008.20636	50.88221	-21.65111	1333.10632	1342.49219	46.72187	0.00000	0.00000	0.00000	1300.43591	1358.56567	-303.40240	1458.00317	970.29547	-143.43030	200.00000	0.00000	0.00000	0.00000	0.00000	-200.00000	0.00000	200.00000	0.00000
44.00000	1.31667	1205.99268	1334.06091	-119.53047	1337.97510	1451.80090	-124.84086	1268.67566	1402.56787	-300.51810	1298.97388	1386.34021	61.91986	1211.97656	1218.02332	-118.43339	1433.40503	1263.20398	-136.11235	1219.88977	996.82928	-267.58405	1256.76062	977.04962	-0.84402	1446.65210	972.92517	-172.42557	1451.68213	972.67084	-112.48326	1445.12085	1042.91003	-151.97086	1341.83533	1081.10034	-404.72324	1251.48010	828.32892	-409.09506	1233.97864	834.89453	-373.68469	1300.10315	826.61322	-406.13248	1355.52087	1056.91345	118.49020	1288.59985	793.11517	122.80954	1339.54382	791.13470	117.78346	1273.36340	816.18024	87.73936	1277.21033	811.46259	41.30023	1183.56775	580.11725	2.98839	1161.15393	707.25922	-9.08579	1118.82715	517.52588	-47.61333	1174.96179	428.70322	-9.79405	1171.26331	172.71086	-49.53865	1133.99170	303.81180	-82.64387	1262.42578	791.26898	-307.11038	1209.40369	551.31195	-285.03397	1173.60706	650.85339	-256.55780	1200.35278	452.50391	-235.35234	1367.36157	445.33264	-304.65884	1546.15820	298.40128	-253.88853	1431.60815	329.37601	-218.21419	1682.03735	314.41321	-206.62009	1546.86426	51.07859	-250.41187	1585.93188	115.43816	-186.35916	1600.17090	141.02171	-297.46371	1655.07129	201.96100	-286.22015	1549.75098	192.22601	-232.73711	1572.62939	79.50105	-203.26538	1573.18726	89.18534	-288.95605	1253.10913	45.11243	-94.06135	957.67761	70.77110	-65.53429	1040.43225	45.80030	-133.15575	1058.13342	39.11988	-9.95942	1155.28662	19.53348	-28.73228	1088.68347	116.54211	-73.32903	995.30865	60.42177	-107.74891	1008.21820	50.61203	-21.56546	1322.85059	1344.55469	47.60659	0.00000	0.00000	0.00000	1291.75122	1360.96069	-302.64532	1449.16711	972.79797	-142.45441	200.00000	0.00000	0.00000	0.00000	0.00000	-200.00000	0.00000	200.00000	0.00000
45.00000	1.32500	1196.80164	1336.04773	-119.24382	1328.44910	1454.15466	-123.77226	1260.22058	1405.00964	-299.97214	1288.77515	1388.37598	62.60602	1203.16931	1219.93323	-118.12390	1424.18677	1265.61597	-134.81841	1211.31958	999.09406	-267.30566	1247.91113	978.98425	-0.15149	1437.91577	975.43976	-171.41119	1442.93274	975.10590	-111.60986	1436.33618	1045.39819	-151.12325	1333.40991	1083.28552	-403.73111	1241.63452	830.83185	-407.43079	1224.28638	837.60791	-372.03336	1290.37244	828.70715	-404.61893	1343.13953	1058.72937	120.31312	1272.10791	796.20337	124.75575	1323.10217	793.26801	119.20546	1257.10706	818.74695	89.13622	1270.56421	812.77948	41.94697	1178.72266	580.76239	2.88375	1155.40918	708.05377	-9.95068	1115.25635	517.16083	-46.43083	1172.88843	429.13187	-9.01033	1171.18176	173.18448	-49.06069	1132.58801	303.84528	-82.07915	1251.01526	794.46497	-306.14825	1190.04883	555.94580	-283.33411	1157.24121	656.24384	-254.61882	1179.30151	457.32721	-232.48370	1345.44421	447.95590	-303.50769	1524.30103	300.99429	-253.13577	1410.60864	332.61935	-216.44440	1662.54944	314.76825	-209.33665	1517.97058	55.79300	-247.02083	1560.88794	119.16395	-184.00453	1572.08936	143.39819	-295.75748	1628.82947	202.72772	-286.59586	1525.38953	196.53017	-229.83430	1546.10840	83.40966	-200.86238	1543.76343	92.42738	-286.01593	1253.07715	45.26004	-93.99882	957.63727	70.75466	-65.39123	1040.56494	47.24559	-133.93549	1057.74268	38.32277	-10.80707	1154.35925	19.02503	-29.44729	1088.60706	116.84315	-72.64254	995.36200	60.51888	-107.64366	1008.23590	50.70104	-21.23438	1312.80176	1346.64819	48.48302	0.00000	0.00000	0.00000	1283.38660	1363.44067	-301.89606	1440.42432	975.27283	-141.51053	200.00000	0.00000	0.00000	0.00000	0.00000	-200.00000	0.00000	200.00000	0.00000
